<svg width="353" height="353" viewBox="0 0 353 353" fill="none" xmlns="http://www.w3.org/2000/svg">
<path d="M227.222 330.717H125.844C102.679 330.717 84.9186 309.868 88.7795 287.033L115.696 125.315L176.533 103.418L237.37 125.315L264.287 286.923C268.037 309.868 250.387 330.717 227.222 330.717Z" fill="#AEDDFF"/>
<path d="M217.404 197.018H135.662C131.47 197.018 127.83 200.107 127.168 204.188L115.144 276.333C112.497 292.328 124.852 306.889 141.068 306.889H211.999C228.214 306.889 240.569 292.328 237.922 276.333L225.898 204.188C225.538 202.191 224.493 200.382 222.943 199.073C221.392 197.764 219.433 197.037 217.404 197.018Z" fill="#F4F4F4"/>
<path d="M215.198 22.0625H137.758C112.276 22.0625 93.3023 45.4488 98.487 70.3794C100.142 78.1013 106.871 83.6169 115.696 83.6169L176.544 100.826L237.381 83.6169C246.052 83.6169 252.924 78.1013 254.579 70.3794C259.764 45.4488 240.68 22.0625 215.198 22.0625Z" fill="#D3D3D3"/>
<path d="M143.274 46.2209C144.854 46.2209 146.369 45.5933 147.486 44.4761C148.603 43.359 149.231 41.8439 149.231 40.264C149.231 38.6841 148.603 37.169 147.486 36.0519C146.369 34.9347 144.854 34.3071 143.274 34.3071C141.694 34.3071 140.179 34.9347 139.062 36.0519C137.945 37.169 137.317 38.6841 137.317 40.264C137.317 41.8439 137.945 43.359 139.062 44.4761C140.179 45.5933 141.694 46.2209 143.274 46.2209ZM210.344 46.2209C211.924 46.2209 213.439 45.5933 214.556 44.4761C215.673 43.359 216.301 41.8439 216.301 40.264C216.301 38.6841 215.673 37.169 214.556 36.0519C213.439 34.9347 211.924 34.3071 210.344 34.3071C208.764 34.3071 207.249 34.9347 206.132 36.0519C205.015 37.169 204.387 38.6841 204.387 40.264C204.387 41.8439 205.015 43.359 206.132 44.4761C207.249 45.5933 208.764 46.2209 210.344 46.2209ZM166.77 59.5687C166.77 61.1486 166.143 62.6637 165.026 63.7808C163.909 64.898 162.393 65.5256 160.814 65.5256C159.234 65.5256 157.719 64.898 156.601 63.7808C155.484 62.6637 154.857 61.1486 154.857 59.5687C154.857 57.9888 155.484 56.4737 156.601 55.3565C157.719 54.2394 159.234 53.6118 160.814 53.6118C162.393 53.6118 163.909 54.2394 165.026 55.3565C166.143 56.4737 166.77 57.9888 166.77 59.5687ZM198.651 59.5687C198.651 61.1486 198.023 62.6637 196.906 63.7808C195.789 64.898 194.274 65.5256 192.694 65.5256C191.114 65.5256 189.599 64.898 188.482 63.7808C187.365 62.6637 186.737 61.1486 186.737 59.5687C186.737 57.9888 187.365 56.4737 188.482 55.3565C189.599 54.2394 191.114 53.6118 192.694 53.6118C194.274 53.6118 195.789 54.2394 196.906 55.3565C198.023 56.4737 198.651 57.9888 198.651 59.5687ZM182.766 40.264C182.766 41.8439 182.138 43.359 181.021 44.4761C179.904 45.5933 178.389 46.2209 176.809 46.2209C175.229 46.2209 173.714 45.5933 172.597 44.4761C171.48 43.359 170.852 41.8439 170.852 40.264C170.852 38.6841 171.48 37.169 172.597 36.0519C173.714 34.9347 175.229 34.3071 176.809 34.3071C178.389 34.3071 179.904 34.9347 181.021 36.0519C182.138 37.169 182.766 38.6841 182.766 40.264ZM115.696 83.6168H237.481V125.205H115.696V83.6168Z" fill="#9B9B9B"/>
<path d="M169 146C169 150.971 165.866 155 162 155C158.134 155 155 150.971 155 146C155 141.029 158.134 137 162 137C165.866 137 169 141.029 169 146Z" fill="#9B9B9B"/>
<ellipse cx="188.5" cy="145" rx="7.5" ry="10" fill="#9B9B9B"/>
<path d="M152.155 171H200.845C200.845 171 201.194 173.929 200.845 175.766C199.116 184.868 187.309 187 176.5 187C165.691 187 153.884 184.868 152.155 175.766C151.806 173.929 152.155 171 152.155 171Z" fill="#9B9B9B"/>
</svg>
